<?xml version="1.0" encoding="utf-8"?>
<!-- Generator: Adobe Illustrator 28.3.0, SVG Export Plug-In . SVG Version: 6.00 Build 0)  -->
<svg version="1.1" id="Lag_1" xmlns="http://www.w3.org/2000/svg" xmlns:xlink="http://www.w3.org/1999/xlink" x="0px" y="0px"
	 viewBox="0 0 385.4 327.5" style="enable-background:new 0 0 385.4 327.5;" xml:space="preserve">
<style type="text/css">
	.st0{fill:#FBA708;}
	.st1{fill:#222222;}
	.st2{fill:#0088CC;}
	.st3{clip-path:url(#SVGID_00000040542240576930122790000009894960189153764741_);}
	.st4{clip-path:url(#SVGID_00000026863844355005934710000003734207494360788410_);}
	.st5{fill:#80D4FF;}
	.st6{fill-rule:evenodd;clip-rule:evenodd;fill:#0088CC;}
	.st7{fill-rule:evenodd;clip-rule:evenodd;}
	.st8{clip-path:url(#SVGID_00000084512151450457748710000013882796444515661999_);}
	.st9{clip-path:url(#SVGID_00000014604623210555287680000007196865941864608129_);}
	.st10{clip-path:url(#SVGID_00000019675011232267526360000002806899899989039251_);}
	.st11{fill:#38B6FF;}
	.st12{clip-path:url(#SVGID_00000123431926206091094060000008450315523574032773_);}
</style>
<path class="st0" d="M259.3,114v71c0,40.3-36.2,73-76.2,73c-37.9,0.4-75.9-35.1-75.8-73v-71c0-39.3,35.9-75.1,75.8-75.1
	S259.3,69.5,259.3,114L259.3,114z"/>
<path class="st1" d="M115.4,198.6l9.1-9.8c0.4-0.4,1.1-0.4,1.4,0.1c0.6,0.9,1.6,2,2.6,1.4c0.8-0.5,1.4-1.4,1.9-2.1
	c0.9-1.1,1.8-2.2,2.5-3.4c0.6-1.1,1.1-2.2,1.8-3.2c0.2-0.2,0.9-1.2,1.3-1.1c0.3,0.1,0.2,0.9,0.6,0.8c0.3-0.1,0.7-0.6,0.9-0.8
	c0.7-0.9,1.2-1.8,1.8-2.8c1.4-2.5,2.7-5,4.5-7.3c0.8-1.1,1.8-2.2,3.1-2.6c2.8-0.9,4.4,2.8,6.2,4.3c0.9,0.8,2.1,0.7,3.1,1.3
	c0.6,0.3,0.8,1,1.2,1.4c0.8,0.7,1.8,1,2.6,1.8c2.6,2.7,3.2,6.7,4.9,9.9c0.9,1.8,2,4.6,0.6,6.4c-0.9,1.1-2.3,1.9-3.4,2.7
	c-1.7,1.2-3.4,2.4-5.4,3.1c-1.3,0.4-2.6,0.5-3.9,0.8c-1,0.2-2.2,0.6-3.2,0.6c-2.2,0-4.2-1.1-6.4-1c-2.3,0.1-4.5,0.7-6.8,0.9
	c-6.8,0.6-13.7,1.1-20.5,1.7L115.4,198.6"/>
<path class="st2" d="M124.3,199.8c2.9-3.5,5.7-7.6,9.9-9.7c3.9-1.9,9.2-1.7,12-5.5c0.2-0.2-0.4-0.6-0.6-0.8c-0.4-0.5-0.4-1-0.1-1.6
	c0.7-1.3,1.5-2.4,2.1-3.7c0.1-0.3,0.5-1.1,0.2-1.4c-0.2-0.3-0.8,0.1-1,0.2c-0.7,0.4-2.5,2.1-2.7,0.4c-0.2-1.7,0.8-3,1.5-4.5
	c0.5-1,0.7-2.1,1.2-3.2c0.1-0.3,1-2.2,1.6-1.9c0.6,0.3,0.6,1.4,1,1.9c0.4,0.7,1.2,1.3,1.8,1.9c1,0.9,2.4,1,3.4,1.9
	c3.4,2.9,5.8,6.5,9.7,8.9c1.9,1.1,6.7,3.6,5.8,6.4c-0.4,1.2-1.7,1.9-2.8,2.4c-2.6,1.1-5.3,1.4-8,2c-2.6,0.6-5.1-0.3-7.8,0.2
	c-2.2,0.4-4.2,1.2-6.4,1.7C138.3,197,131.3,198.3,124.3,199.8"/>
<path class="st1" d="M138.1,225.9c0.2-0.5,0.1-1.1-0.3-1.4c-3.6-3.5-0.6-9.8-0.1-14.9c0.1-1.3,0.7-3.1,1.7-4.4
	c4.2-5.8,8.5-11.6,12.7-17.4c1.9-2.7,3.6-5.4,5.6-8.1c1.5-2,3.8-3.5,5.2-5.5c1.3-2,1.9-4.8,3.9-6.3c0.5-0.4,0.6,0.8,0.9,1
	c0.5,0.2,1.3-0.8,1.6-1.1c2.4-2.5,3-6,5.6-8.4c0.6-0.5,0.1,0.9,0.6,0.8c0.2,0,0.4-0.4,0.6-0.6c0.5-0.5,1-1.1,1.5-1.6
	c2-2.1,4.1-4.2,5.8-6.6c0.7-1,0.9-2.1,1.4-3.1c0.2-0.4,0.5-0.9,0.9-0.9c1.9-0.4,3.5,2.3,4.7,3.3c2,1.8,4.4,3.6,6.1,5.8
	c0.6,0.8,0.5,2,1.3,2.6c0.6,0.4,0.5,0.9,0.9,1.5c0.7,1,1.6,1.8,2.6,2.6c0.5,0.4,0.9,1.1,1.5,1.4c0.3,0.2,0.4-0.1,0.4-0.4
	c0-0.6-0.1-1.5,0.7-1c0.1,0.1,0.2,0.2,0.3,0.3c0.1,0.2,0.3,0.5,0.4,0.7c0.4,0.8,1,1.3,1.4,2.1c0.4,0.6,0.6,1.4,1,2
	c0.2,0.3,0.5,0.5,0.8,0.4c0.1,0,0.2-0.1,0.3-0.2c0.1-0.1,0.1-0.1,0.2-0.2c0.2-0.1,0.4-0.3,0.6-0.4c0.8-0.4,0.8,0.7,1.2,1.2
	c1,1.4,2.2,2.8,3.3,4.1c0.9,1,1.7,2,2.6,3c0.1,0.2,0.7,0.6,0.7,0.8c0,0.2,0.2,0.4,0.3,0.6c5.3,5.7,10.6,11.4,15.9,17.2l1.1,1
	c0.2,0.3,1,1.4,1.2,1.9c0.6,1.2,1.2,2.4,1.6,3.7c1.1,3.9-1.4,6.8-3.1,10c-1,1.8-2.2,3.6-3.5,4.9c-2.5,2.7-5.5,4.9-8.5,6.9
	c-3,1.9-6.6,3-10,4.3c-6.8,2.6-13.6,4.6-20.7,6.1c-3.2,0.7-6.2,1.2-9.5,1c-6.8-0.3-13.6-0.8-20.2-2.6c-4.7-1.3-13.5,2.2-17.9,0
	C141.7,231.1,136.5,229.5,138.1,225.9L138.1,225.9L138.1,225.9z"/>
<path class="st2" d="M163.4,184.5c0.3-0.4,0.6-0.8,1-1.1c1.5-1.8,2.9-3.7,4.6-5.3c1.7-1.6,3.6-2.9,5.1-4.6c2.5-2.9,4.4-6.2,7-9.1
	c1.5-1.7,3.4-3,5.1-4.5c0.6-0.6,1.8-1.4,1.9-2.3c0.1-0.6-0.7-0.2-1-0.1c-1,0.4-2,0.9-2.9,1.4c-0.1,0-1.3,0.7-1.3,0.7
	c-0.2-0.5,0.6-1.3,0.8-1.7c0.8-1,2.7-2.5,2.6-3.9c0-0.4-0.6,0.1-0.7,0.2c-0.2,0.2-1.5,1.7-1.8,1.1c-0.2-0.4,0.1-0.9,0.2-1.3
	c0.5-0.9,1.4-1.7,1.7-2.7c0.3-0.9,0-1.9,0-2.8c0-0.3,0-0.9,0.3-1.1c0.2-0.1,0.6,0.6,0.7,0.7c0.7,0.9,1.5,1.7,2.3,2.4
	c0.4,0.4,0.9,0.8,1.4,1.1c0.2,0.1,0.3,0.2,0.5,0.3c0.1,0,0.3,0.1,0.2,0.1c-0.4,0-1.3-0.7-1.6-0.5c-0.1,0,0.6,0.6,0.6,0.6
	c0.6,0.6,1.3,1.2,1.9,1.7c1.8,1.5,3.6,2.8,5,4.6c2,2.5,2.9,5.6,4.9,8c0.9,1.1,2.1,1,3.3,1.7c0.1,0.1,1.3,0.7,1.1,1
	c-0.4,0.6-1.3,0.9-1.8,1.5c-0.9,1-2,2.1-2.9,3.1c0,0,0-1.7-0.4-1.6c-0.8,0.4-1.8,1.7-2.4,2.3c-0.2,0.2-0.6,0.6-0.3,0.7
	c-0.2,0.3-0.4,0.6-0.7,0.8c-0.6,0.6-0.9-0.7-1.4-0.1c-0.5,0.6-0.9,1.2-1.3,2c-0.1,0.3-0.6,1.4-0.9,1.6c-0.1,0.1,0-0.2,0-0.3
	c0-0.3,0.1-0.9-0.1-1.1c-0.1-0.2-0.4,0.2-0.6,0.4c-1.6,1-2,3.4-2.7,5c0,0.1-1.1,2.2-1.1,2c-0.6,0.7-1.1,1.3-1.4,1.8
	c-0.1,0.1,1.7,0.7,1.8,0.8c0.4,0.5-0.1,0.9,0.7,1.1c0.5,0.1,1,0.3,1.4,0.5c0.1,0,0.4,0.2,0.4,0.3c-0.1,0.4-1.3,0-0.9,0.4
	c0.8,0.7,1.7,0.7,2.6,0.9c0.3,0.1,0.6,0.3,0.9,0.3c0.4,0.1,0.8,0,1.2,0c0.1,0,0.6-0.3,0.6-0.1c1.1,0.3,2.1-0.4,2.8-1.3
	c0.5-0.7,0.9-1.6,1.5-2.3c1.9-1.9,4.4-3.2,6.1-5.4c0.6-0.7,2.1-1.9,2-2.9c0-0.3-0.7,0.1-0.8,0.1c-0.7,0.3-1.4,0.6-2.1,0.9
	c-0.2,0.1-0.6,0.2-0.7,0.1c-0.1-0.1,0.4-0.6,0.4-0.6c0.3-0.4,1.5-1.3,1.4-1.8c-0.1-0.7-1.4,0-1.7-0.4c-0.1-0.2,0.1-0.6,0.2-0.7
	c0.3-0.6,1.2-1.2,1.2-1.9c0-0.4-0.7-0.5-0.6-1c0-0.8,0.8-1.4,1-2.2c0.2-0.8-0.1-1.5,0-2.3c0-0.2,0.4-1.4,0.6-1.4
	c0,0,0.1,0.3,0.1,0.3c0.2,0.4,0.3,0.8,0.5,1.2c0.5,0.9,1.6,1.5,2.1,2.4c0.3,0.7-0.3,1.5,0.3,2.1c0.8,0.8,2.1,1.3,3.1,1.9
	c0.3,0.2,0.9,0.6,0.9,0.9c0.1,0.5-0.5,1.1-0.8,1.5c-0.9,1.1-2.2,2-3.3,3c-2.6,2.3-5.8,4.2-8.1,6.7c-1.9,2.1-2.8,4.8-5.1,6.6
	c-0.5,0.4-1.2,0.8-1.7,1.1c-0.6,0.4-2.3-0.7-2.8-0.9c-2.6-1.2-4.3-2.6-6.3-4.7c-0.6-0.6-1.2-1.2-1.7-1.9c-0.1-0.2-0.4-1.2-0.8-1
	c-2.4,1.3-2.5,5.7-5.4,6.6c-0.8,0.2-1.3-0.9-1.9-0.8c-0.7,0.2-1.5,1.4-1.9,1.9c-1.5,1.6-3.3,4.2-5.4,5c-0.5,0.2-0.7-0.3-0.8-0.7
	c0,0-0.1-0.7-0.1-0.7c-1,0.6-2,1.8-2.8,2.6c-2.1,2.2-3.9,4.5-5.9,6.8c-1.2,1.4-2.3,2.8-3.7,3.9c-1.7,1.4-3.6,2.5-5.2,4
	c-2.9,2.7-5.6,6.2-9.2,8c-4.1,2.1-7.1-1.1-9.2-4.4c-0.7-1.1-1.9-2.6-1.7-4.1c0.5-2.8,2.9-5.9,4.7-8c5.2-6.1,12.4-10,18.8-14.8
	c1.3-1,2.9-2,3.9-3.3c0.8-1.1,1.2-2.7,2.5-3.5c0.3-0.1,0.4-0.4,0.6-0.7C162.7,185.6,163,185,163.4,184.5"/>
<path class="st1" d="M254.9,200.5c-4.1,3.6-18.9-17.5-24.3-23.7c-5-5.9-5.4-5.5-6.2-5.5s-16.9,6.8-33.6,28.1s57.7,21.2,57.7,21.2
	L254.9,200.5L254.9,200.5z"/>
<path class="st2" d="M243.9,213.1c0-0.3,0.4-0.6,0.6-0.8c0.6-0.6,1.2-1.2,1.7-2c0.6-1,1.2-1.9,1.8-2.9c0.5-0.9,1.8-2.6,1.7-3.8
	c-0.1-1.3-1.2-2.2-1.9-3.2c-0.4-0.6-0.7-1.1-1.2-1.7c-0.6-0.7-0.9-1.3-1.7-1.8c0,0-0.7-0.4-0.7-0.4c-0.3,0.2,0,1.3-0.6,1.1
	c-0.7-0.2-1.1-1.1-1.5-1.7c-0.9-1.3-2.1-2.6-2.9-4c-0.3-0.5-0.7-0.8-1-1.2c0,0-0.6-1-0.6-1c-0.2,1.4,0.5,3,0.8,4.4
	c0,0.2,0.4,1.4,0.3,1.7c-0.1,0.1-0.2-0.3-0.3-0.4c-0.4-0.7-0.8-1.4-1.1-2.2c-0.9-2.1-1.8-4.2-2.7-6.2c-1.7-3.8-4.1-7.3-6.8-10.5
	c-0.3-0.4-0.6-1-0.9-1.3c-0.3-0.3-0.8-0.4-1.1-0.8c-0.1-0.1-0.5-0.7-0.6-0.6c-1.2,1.3-1.6,3.1-2.5,4.6c-1,0.7-2.4,1.9-2.4,2.8
	c0,1,2.6,0.7,2.1,1.6c-1.1,1.5-3.2,2.5-4.5,3.8c-0.6,0.5-1.3,1.3-1.3,2.2c0.1,1.5,3,0.8,3.9,0.8c0.4,0,1.1-0.1,1.3,0.4
	c0.1,0.5-0.7,1.1-1,1.4c-1.1,1-3,2-3.6,3.4c-0.7,1.7,3.2,1,3.1,2.3c-0.1,0.7-1.3,1.3-1.8,1.7c-1.5,1-4.2,2.4-4.6,4.4
	c-0.3,1.4,1.7,0.7,1.8,1.9c0.1,2.2-2.1,4.3-1,6.5c1,2.2,4.6,3.2,6.8,3.7c6.5,1.6,14.4,1.5,20.8-0.8
	C242.8,213.9,243.4,213.5,243.9,213.1L243.9,213.1L243.9,213.1z"/>
<path class="st1" d="M142.5,237.1c2.9-2,2.6-3.4,5.1-6.1c2.6-2.8,8-6.9,11.3-9c1.3-0.8,1.1,0.8,1.1,1.6c0,0.3,0,0.8,0.4,0.7
	c1.4-0.4,2.7-2,3.6-3.1c2-2.4,3.7-4.8,6-6.8c0.5-0.4,1.8-1.6,2.6-1.3c0.6,0.2,0.5,1.8,1.3,1.1c2.6-2.2,4.4-5,7.1-7.1
	c1.6-1.2,3.7-1.2,5.1-2.7c2-2.1,3.6-6.1,6.7-6.8c1.2-0.3,3.1,1.4,4,1.9c4.1,2.7,8.4,5.6,12.1,8.8c2.9,2.5,5.6,5.4,8.9,7.5
	c1.1,0.7,3.3,2,4.7,1.7c0.6-0.1,0-1.5,0.7-1.3c1.3,0.3,2.6,1.3,3.6,2.1c2.7,2,4.9,4.5,7.5,6.6c3,2.4,6.8,3.4,9.8,5.7
	c1.3,1,2.9,2.6,3,4.3c0.3,2.4-3.3,5-4.8,6.5c-5.7,5.7-12.1,10.4-19.3,14.1c-5.9,3.1-12.2,5.4-18.8,6.6
	C180.5,266.8,157.5,255.5,142.5,237.1"/>
<path class="st2" d="M240.4,219.6c-4.2-2.1-8.9-4.6-13.6-5.4c-1.2-0.2-1.2,1.7-2.3,1.4c-2.6-0.8-4.6-4.3-7.7-3.5
	c-0.5,0.1,0.5,2.3,0.2,2.2c-3.1-1.3-4.2-5.4-6.3-7.7c-0.9-0.9-1.3,0.6-1.9,0.3c-1.9-0.9-3.1-3.4-5.2-3.9c-0.2-0.1-0.2,0.6-0.2,0.7
	c0,0.7,0.1,1.5,0.1,2.2c0,0,0,0.8-0.1,0.7c-2-1-3.1-4.1-4.4-5.7c-0.5-0.6-1.4-1.7-2.3-1.6c-1.1,0-0.8,2.4-0.6,3.1
	c0,0.1,0.3,1.1-0.1,0.9c-0.9-0.3-1.8-2.2-2.2-3c-1.4-2.5-2.9-6.4-5.8-7.5c-0.9-0.3-1.5-1.9-1.9-2.6c0-0.1-0.4-0.9-0.4-0.9
	c-0.1,0-0.1,0.5-0.1,0.5c0,0.6,0.1,1,0.3,1.6c0.5,1.2,1,2.5,1.6,3.6c0.5,0.9,1.1,1.8,1.2,2.8c0.2,1.7-1.9,2.1-3.1,2.6
	c-0.8,0.4-1.3,1-0.8,1.9c0.5,0.9,1.5,1.5,2.3,2.1c1.6,1.2,3.3,2.4,4.8,3.7c0.8,0.7,2.3,1.8,2.3,3c0,1.3-3.2,0.3-3.8,0.2
	c-0.1,0-1.6-0.3-1.5-0.2c2.6,3.4,7.2,4.6,10.4,7.2c0.8,0.7,1.7,1.2,2.4,1.9c0.1,0.1,0.6,0.5,0.5,0.8c-0.1,0.1-0.6,0-0.7-0.1
	c-0.7-0.2-1.4-0.4-2-0.6c-2.3-0.8-4.6-1.7-6.9-2.2c-0.5-0.1-2.1-0.6-2.5-0.1c-0.2,0.3,1.6,1,1.8,1.2c1.7,1.1,3.5,2.2,5,3.6
	c0.1,0.1,1.4,1.2,0.9,1.5c-0.7,0.4-2.2,0.2-3,0.2c-2.7-0.3-5.3-1.3-8-1.5c-0.7,0-3.1-0.5-3.5,0.3c-0.2,0.4,0.4,0.8,0.6,1
	c0.9,0.6,1.9,1,2.9,1.4c3.3,1.5,6.7,3.1,10.2,4.2c0.7,0.2,3.2,0.8,3.3,1.6c0.1,0.3-0.5,0.4-0.7,0.4c-0.9,0-1.7-0.2-2.5-0.4
	c-2.7-0.7-5.4-1.6-8.1-1.9c-0.8-0.1-2.6-0.3-3.2,0.5c-0.3,0.4,1.5,1.5,1.8,1.7c1.6,1,3.2,2,4.7,3.2c0.4,0.3,1.4,0.9,1.5,1.6
	c0.1,0.8-1.3,0.8-1.8,0.8c-1.4,0-2.9-0.4-4.3-0.4c-0.5,0-1.4,0-1.7,0.6c-0.2,0.5,0.5,1.2,0.9,1.5c0.9,0.8,3.8,2.5,2.9,4
	c-1.3,2.3-5-0.7-6.9,0.3c-0.7,0.4-0.4,1.1-0.1,1.6c0.4,0.9,1.1,2.1,0.5,3c-0.8,1.2-2.7,1.2-3.3,2.4c-0.2,0.4,0.2,0.9,0.4,1.2
	c0,0,0.4,0.6,0.4,0.6c-0.6,0.3-2.3-0.9-1.9,0.9c0.4,1.5,3.3,1.9,4.6,2c4.9,0.7,10.2,0.1,15-0.8C217.2,250.4,231.2,235.8,240.4,219.6
	"/>
<path d="M220.3,102.2c0.3,0.3-0.3,0.4-0.5,0.5c-0.7,0.2-1.4,0.4-2.1,0.5c-2.7,0.5-5.4,0.7-8.2,0.9c-3.9,0.3-7.9,0.6-11.8,0.2
	c-3.4-0.4-6.8-1.3-10.1-2.3c-8.6-2.4-17.3-2.6-26.2-2.8c-4.7-0.1-9.4-0.3-14.1-0.2c-3.7,0.1-7.5,0.6-11.2,0.5
	c-0.9,0-3.1,0.1-3.8-0.7c-0.2-0.2,0.5-0.1,0.7-0.1c0.5-0.1,1-0.2,1.5-0.3c1.8-0.5,3.6-1.1,5.5-1.5c0.7-0.2,1.4-0.3,2.1-0.5
	c0,0,0.8-0.2,0.7-0.3c-0.1-0.2-0.9-0.1-1.1-0.2c-1.1-0.1-2.1-0.1-3.2,0c-4.6,0.3-9.1,0.9-13.7,1.1c-1.4,0.1-2.7,0.2-4.1,0.3
	c-0.2,0-2.3,0.2-2.2,0c0.3-0.5,1.2-0.6,1.7-0.7c1.6-0.2,3.2-0.2,4.8-0.2c6,0.1,12.2-0.9,18.1-1.8c2.1-0.3,4.1-0.6,6.2-1
	c0.8-0.1,1.5-0.3,2.3-0.4c0.2-0.1,0.4-0.1,0.7-0.1c0.1,0,0.4,0,0.3-0.1c-0.2-0.2-1.3,0-1.6,0c-1.7,0-3.3,0.1-5,0.2
	c-6.9,0.3-13.7,1.4-20.6,2c-2,0.2-3.9,0.3-5.9,0.2c-0.2,0-1.8-0.1-1.8-0.2c0-0.1,0.7-0.2,0.8-0.3c0.7-0.2,1.3-0.4,2-0.7
	c1.8-0.7,3.5-1.4,5.2-2.3c1.1-0.6,2.2-1.4,3.4-1.6c1-0.2,2.1-0.1,3.1-0.1c0.2,0,0.9,0.1,1-0.2c0.3-0.4-0.6-1.3-0.7-1.6
	c-0.6-1.5-0.8-3.1-0.8-4.7c0.1-3.9,2.1-7.8,6.1-9.1c1.9-0.6,3.4,0.4,4.6,1.7c0.5,0.5,1.5,1.9,2.4,1.6c0.9-0.2,0.3-2.3,1.1-2.8
	c0.5-0.3,1.3,0.3,1.6,0.6c0.2,0.1,0.8,0.5,0.5,0.5c-1.4-0.4,0.3-2.6,1.2-2.6c0.9-0.1,1.8,1,2.3,1.6c0.2,0.2,0.3,0.4,0.5,0.6
	c0.1,0.1,0.2,0.5,0.3,0.4c0.6-1,0.6-2.7,1-3.9c1.4-3.2,4.5-3.7,7.6-3.1c1.8,0.4,4.2,1.1,5.2,2.9c0.8,1.4,0.9,4.4,2.5,5.3
	c-0.1-0.5,1.2-1.2,1.4-1.3c1.5-1,3.2-1,5-0.8c1.1,0.1,1.9,0.5,2.2,1.6c0.1,0.4,0.1,1.2,0.5,1.5s1.4-0.3,1.7-0.4c1-0.3,2-0.5,2.9-0.1
	c1.6,0.7,1.2,3,2.4,3.8c1.2,0.8,3.2,0,4.5,0.7c0.8,0.4,1.2,1.2,1.5,2c0.1,0.3,0,1.2,0.3,1.3c0.2,0.1,0.6-0.3,0.8-0.3
	c0.6-0.2,1.3-0.1,1.9,0.1c4.6,1.2,9.4,1.2,14.1,2c3,0.5,5.9,1.1,8.9,1.6c0.8,0.2,1.7,0.3,2.5,0.5c0.4,0.1,1.1,0.2,1.1,0.2
	s-0.5-0.1-0.7-0.1c-0.1,0-0.9,0-1,0c-1.4,0.1-2.7,0.1-4.1,0.1c-4.7,0.1-9.4,0.3-14.1,0.3c-1.6,0-3.2-0.1-4.8-0.1c-0.5,0-1,0-1.5,0
	c-0.3,0-1.1-0.3-0.9-0.1c0.6,0.7,2.1,0.4,2.8,0.9c2.3,1.5,5.5,2.2,7.6,5.7c0.4,0.7,1.1,1,1.8,1.1C208.5,98.4,215.4,99.2,220.3,102.2
	"/>
<path d="M161.2,94.2c-4.3-0.5-8.6-1.3-12.9-1c0,0,0.6-0.3,0.8-0.4c0,0,0,0,0.1,0c0.3-0.2,0.6-0.4,0.9-0.6c0.4-0.2,0.2-0.8-0.2-0.8
	c-7.3-0.6-14.7,0.5-21.9-0.4h0c-1.9-0.1,2.7-0.8,3.1-0.8c0,0,0.1,0,0.1,0c5.9-1.5,13.8-1.4,18.1-5.7c0,0,0.1-0.1,0.1-0.2
	c1.6-4.2,10.9-11.1,17.8-7.1l0.1,0.1c1.6,1.4,3.5,0.5,6.1,1.3c0.2,0.1,0.3,0.2,0.3,0.4c0,0.2,0,0.3,0,0.3c1-0.8,1.3-1.6,2.6-2.1
	c2.1-0.7,3.6,0.3,5.1,1.5c0,0,0.1,0.1,0.1,0.1c1.7,2.9,3.2,0.8,5.6,1.7c0,0,0.1,0,0.1,0c1.4,0.8,0.9,2.9,1.9,3.9
	c0.9,1,2.8,0.1,3.8,0.7c1.1,0.7,1.6,2.4,2.9,2.8c0,0,0.1,0,0.1,0c2.8,0.4,5.6-1.3,8.5-1.1c1.9,0,3.4,2.5,5.1,3.2
	c0.7,0.3,2.2-0.4,2.9-0.5c2-0.3,4-0.2,6-0.2c1.8,0,3.9-0.4,5.8-0.2c0.5,0.1,0.5,0.8,0,0.9c-1.3,0.2-2.6,0.5-4,0.6
	c-10.1,1-20.4-1.6-30.4,0.4c-0.1,0-0.9,0.2-0.6,0.4c1.7,1.1,4.6,1,6.5,1.2c5.8,0.7,11.7,0.5,17.5,0.9c0.5,0,0.5,0.8,0,0.9
	C196.1,95.4,178.4,95.4,161.2,94.2L161.2,94.2L161.2,94.2z"/>
<path d="M114.4,121.7c0,0,3.6-3.8,9-3.4c5.2,0.3,2.1-7.5,11.6-7.8c0.9,0,1.6-0.7,1.7-1.5c0.3-1.6-0.3-2.9,2.8-3.8
	c2.3-0.7,2.6-4,6.4-3.2c1.1,0.2,2.3,0.2,3.4-0.2c1.8-0.8,4.4-0.8,7.5,2.7c3.6,4.3,5.9,0.3,8.8,2.3c1.4,1,1.9,2.3,1.9,3.3
	c0,0.8,0.6,1.6,1.4,1.8c1.7,0.5,4.3,1.8,7.2,4c1.2,0.9,2.7,1.4,4.2,1.3c7.7-0.2,31.5-1,34.3-0.2c3.4,1-16.8,3.6-33.8,3.8
	c-3,0.2,1.1,0.7-0.5,1.3c-1.6,0.6-17.1,0.9-17.1,0.9l-49.2,2.6L114.4,121.7L114.4,121.7L114.4,121.7z"/>
<path d="M173.1,119.1c-0.2,0.6,0.5,0.9,1,1.1c1.2,0.5,2.5,0.7,3.8,0.9c4.4,0.8,8.7,1.7,13.2,2c1.1,0.1,2.2,0,3.3,0.1
	c0.3,0,1,0,1.2,0.3c0.1,0.2-0.4,0.2-0.5,0.3c-0.6,0.1-1.2,0.2-1.8,0.2c-2.6,0.2-5.2,0.2-7.8,0.3c-2.7,0.1-5.5-0.7-8.1,0
	c-0.4,0.1-1-0.2-1.4-0.2c-1.7,0-3.2-0.3-4.9-0.6c-1.9-0.2-3.9-0.2-5.8-0.3c-0.9-0.1-2.5-0.5-3.4-0.3c-0.1,0,0.2,0.1,0.3,0.1
	c0.2,0.1,0.4,0.2,0.6,0.2c0.6,0.1,1.1,0.2,1.7,0.4c2.1,0.5,4.3,0.8,6.4,1.2c0.6,0.1,1.1,0.2,1.7,0.2c0.3,0,0.9-0.1,0.8,0.2
	c0,0-0.6,0-0.7-0.1c-0.7,0-1.4-0.2-2.1-0.2c-3.4-0.2-6.8-0.2-10.2-0.2c-7.8-0.1-15.7,0.2-23.5,0.2c-2.6,0-5.3,0-7.9-0.3
	c-1-0.1-2.1-0.1-3.1-0.4c-0.3-0.1-0.7-0.2-1-0.3c-0.1,0-0.5-0.1-0.4-0.2c1.2-0.3,2.9,0,4.2-0.1c3.4-0.2,6.8-0.7,10.2-0.8
	c1.5-0.1,1.4,0,2.9-0.2c0,0,2,0,1.9-0.3c-0.1-0.2-1.1-0.5-1.2-0.5c-0.9-0.3-2.1-0.6-3.1-0.5c-1.4,0.2-2.8,0-4.2,0.1
	c-3.3,0.1-6.5,0.1-9.8,0c-1.8-0.1-4.2,0.1-5.8-0.7c-0.6-0.3-1.2-0.7-1.7-1c-0.2-0.2-0.9-1.1-0.8-0.8c0.2-0.9,0.4-1.8,0.8-2.6
	c-0.5-0.1,0.7-1.7,0.9-1.8c0.8-0.8,2.2-1.7,3.5-1.7c0.7,0,1.4,1.1,1.8,1.6c0.1,0.1,0.3,0.4,0.3,0.5c-0.1,0.1-0.3-0.3-0.3-0.4
	c0-0.3,0.1-0.7,0.2-1c0.4-1.1,1.2-2.1,2.4-2c0.4,0,1.2,0.3,1.5,0.7c0.1,0.1,0.1,0.4,0.1,0.4s0.4-0.9,0.6-1.3
	c0.1-0.2,0.2-0.4,0.4-0.6c0.5-0.7,0.6-0.8,1.1-1.2c0.6-0.4,1.3-0.8,2.1-0.6c0.2,0.1,0.4,0.2,0.6,0.3c0.1,0.1,0.4,0.2,0.3,0.2
	c-1.1-0.6,0-2.8,0.5-3.4c1.4-1.6,4.2-2.6,6.1-1.5c0.6,0.3,1.2,1.3,1.4,1.9c0.1,0.2-0.1,0.8-0.1,0.8c0-0.2,0.4-0.9,0.4-1.1
	c0.2-1.4,0.5-3.1,1.9-3.9c0.3-0.2,0.7-0.3,1.1-0.2c0.2,0.1,0.4,0.6,0.5,0.4c0.2-0.4,0.1-1.5,0.4-2.1c1-2,3.6-3.2,5.7-2.7
	c0.9,0.2,1.4,0.8,1.5,1.8c0,0.2,0,1.4,0.2,1.6c0,0,0.4-0.7,0.5-0.8c0.4-0.6,0.9-1.2,1.7-1.1c1.1,0.1,2,0.7,2.4,1.7
	c0.1,0.2,0.4,2.3,0.8,2.2c0.5-0.1,1.1-0.9,1.6-1.2c1.2-0.5,2.5-0.1,3.5,0.5c0.5,0.3,0.9,0.7,0.9,1.3c0,0.4-0.5,0.9-0.2,1.1
	c0.2,0.1,0.3-0.2,0.4-0.3c0.5-0.2,1.1-0.3,1.6-0.3c0.4,0.1,0.8,0.3,1.1,0.6c2,1.6,0.2,3-0.3,4.8c-0.1,0.2,1,0.3,1.1,0.5
	c0.2,0.2-0.2,0.7-0.3,0.8c-0.1,0.1,0.2-0.1,0.2-0.2c0.1-0.1,0.3-0.2,0.4-0.3c0.7-0.3,1.1-0.5,1.9-0.1c1.1,0.5,0.9,1.6,1.1,2.4
	c0.1,0.2,0.2-0.3,0.4-0.4c0.3-0.1,0.7-0.2,1.1-0.2c0.7-0.1,0.8,0.6,1.2,1c0.1,0.1,0.1,0.1,0.2,0.1c-0.3-0.2,1.4-0.5,1.6,0.1
	c0.1,0.3,0.1,0.6,0,0.8c0,0.1-0.1,0.2-0.1,0.2c0.1,0.1,0.4-0.2,0.4-0.2c0.4-0.3,0.8-0.4,1.2-0.4c0.6,0.1,1.1,0.5,1.6,0.8
	c0.6,0.3,1.2,0.3,1.8,0.3c1.7,0,3.4-0.3,5.2-0.2c3.5,0.1,7.1,0.5,10.6,0.8c1.4,0.1,2.9,0.4,4.3,0.5c0.5,0,0.9,0.2,1.4,0.2
	c0.3,0,0.2,0,0.5,0.1c0.1,0,0.2,0.1,0.1,0c-0.5-0.3-1.9,0.1-2.3,0.1c-1.6,0-3.2,0-4.7,0c-5-0.1-10,0.1-15,0.4
	c-1.2,0.1-2.4,0.2-3.6,0.3c-0.5,0-1.2-0.1-1.6,0.1c-1,0.3-2,1.3-2.5,2.2C173.1,119,173.1,119.1,173.1,119.1"/>
<g>
	<defs>
		<rect id="SVGID_1_" x="91.4" y="20.3" width="185.3" height="256"/>
	</defs>
	<clipPath id="SVGID_00000151535485857051064730000005298646542414045855_">
		<use xlink:href="#SVGID_1_"  style="overflow:visible;"/>
	</clipPath>
	<g style="clip-path:url(#SVGID_00000151535485857051064730000005298646542414045855_);">
		<g>
			<defs>
				<path id="SVGID_00000147189871382334300860000012575929425584077745_" d="M249.6,46.7c-0.9-0.8-1.7-1.7-2.6-2.5
					c-15.9-14.8-37.3-23.8-60.6-23.8c-51.9,0-94.4,41.7-94.4,94.4v67.5c0,9.2,1.4,18.2,3.9,26.6c2.9,9.9,7.6,19.2,13.4,27.5
					c17,24,45,39.6,76.4,39.6c15.9,0,30.9-4.2,43.9-11.5c27.5-15.5,46.3-45,46.3-78.7v-76C275.8,85.3,265.8,62.9,249.6,46.7
					L249.6,46.7z M250.2,178.8c0,35.9-29.4,65.2-65.2,65.2c-0.7,0-1.4,0-2.1,0c-34.9-1.1-63.1-30-63.1-65.2v-64.5
					c0-33.5,25.6-61.3,58.2-64.8c2.3-0.2,4.6-0.4,7-0.4c17.9,0,34.2,7.3,46,19.1s19.1,28.1,19.1,46L250.2,178.8L250.2,178.8z"/>
			</defs>
			<clipPath id="SVGID_00000112596766697551543070000012271722382915923072_">
				<use xlink:href="#SVGID_00000147189871382334300860000012575929425584077745_"  style="overflow:visible;"/>
			</clipPath>
			<g style="clip-path:url(#SVGID_00000112596766697551543070000012271722382915923072_);">
				<path class="st1" d="M273.6,296.4L63.7,272.9L94.3,0l209.9,23.5L273.6,296.4z"/>
			</g>
		</g>
	</g>
</g>
<path class="st5" d="M185,247.5c-5.6,0-11-0.7-16.2-1.9c-29.9-7.2-52.4-33.8-52.4-65.8v-67.1c0-37.5,30.7-67.5,68.2-67.7h0.4
	c18.9,0,36,7.6,48.4,19.9c12.4,12.3,20.1,27.8,20.1,47.8v67.1h0C253.6,217,222.7,247.5,185,247.5 M185,29.8
	c-43.2,0-82.2,38.3-82.1,80.3v75.9c-0.1,40.2,40.5,78.1,81.3,78.1c0.3,0,0.5,0,0.8,0c16.3,0,32.1-5,45.4-13.5
	c22-14.1,37.2-37.8,37.2-64.6v-75.9c0-31-16.4-55.7-40-69.2C215,33.8,200.3,29.8,185,29.8"/>
<path class="st1" d="M239.4,70.3l-2.7,3c-0.9,1-2.4,1.1-3.4,0.2c-1-0.8-1.1-2.4-0.2-3.3l2.7-3c0.9-1,2.4-1.1,3.4-0.2
	C240.2,67.9,240.3,69.4,239.4,70.3L239.4,70.3z"/>
<path class="st1" d="M293.1,134.9l-2.7,3c-0.9,1-2.4,1.1-3.4,0.2s-1-2.4-0.2-3.4l2.7-3c0.9-1,2.4-1.1,3.4-0.2
	C293.9,132.4,294,133.9,293.1,134.9L293.1,134.9z"/>
<path class="st1" d="M254.3,71.1l-2.7,3c-0.9,1-2.4,1.1-3.4,0.2c-1-0.8-1.1-2.4-0.2-3.3l2.7-3c0.9-1,2.4-1.1,3.4-0.2
	S255.1,70.1,254.3,71.1L254.3,71.1z"/>
<path class="st6" d="M233,70.4l2.7-3.1l-3.8,1.9L233,70.4L233,70.4z"/>
<path class="st7" d="M183.1,238c1.3-0.2,2.4,0.7,2.6,2c0.2,1.3-0.7,2.5-1.9,2.7c-1.3,0.2-2.4-0.7-2.6-2
	C181,239.4,181.9,238.2,183.1,238L183.1,238z M183.2,238.9c0.8-0.1,1.5,0.4,1.6,1.2c0.1,0.8-0.4,1.5-1.2,1.6
	c-0.8,0.1-1.5-0.4-1.6-1.2C181.9,239.7,182.5,239,183.2,238.9L183.2,238.9z"/>
<g>
	<defs>
		<rect id="SVGID_00000093158805823100174190000000308744809317209509_" x="41.5" y="135.2" width="181.9" height="110.7"/>
	</defs>
	<clipPath id="SVGID_00000183246216821492115160000004421603344184452527_">
		<use xlink:href="#SVGID_00000093158805823100174190000000308744809317209509_"  style="overflow:visible;"/>
	</clipPath>
	<g style="clip-path:url(#SVGID_00000183246216821492115160000004421603344184452527_);">
		<g>
			<path class="st1" d="M223.1,136.5c0,0,0.1-0.1,0.1-0.1c-3.4,2.6-6.7,5.2-10.1,7.8c-50.2,37.8-97.3,62-119.4,65.1
				c-6,0.9-10.2,0.1-12.1-2.3c-3.2-4,0-12.6,8.2-24.3v-45.9c-38.9,41.1-57.7,80.8-43.6,98.9c9.1,11.6,31.1,13.9,60.9,1.1
				C138.9,223.1,179.6,192.1,223.1,136.5C223.1,136.5,223.2,136.5,223.1,136.5L223.1,136.5L223.1,136.5z"/>
			<path class="st0" d="M223.2,136.4c-43.5,55.6-84.2,86.6-116.1,100.4c-29.8,12.8-51.8,10.5-60.9-1.1
				c-14.2-18.1,4.7-57.8,43.6-98.9v12.6c-22,20.4-40.7,52.6-37.8,71.9c0.8,5.1,4.2,9.2,9,11.1C113.5,253.6,221.5,138.2,223.2,136.4
				L223.2,136.4z"/>
		</g>
	</g>
</g>
<g>
	<g>
		<defs>
			<rect id="SVGID_00000173849573796828446880000001789602443417128583_" x="64.7" y="135.2" width="158.7" height="88"/>
		</defs>
		<clipPath id="SVGID_00000064345656462571726490000007794718990639455396_">
			<use xlink:href="#SVGID_00000173849573796828446880000001789602443417128583_"  style="overflow:visible;"/>
		</clipPath>
		<g style="clip-path:url(#SVGID_00000064345656462571726490000007794718990639455396_);">
			<g>
				<defs>
					<rect id="SVGID_00000040546254393251052190000016476197305126413484_" x="65.6" y="136.3" width="157.8" height="85.6"/>
				</defs>
				<clipPath id="SVGID_00000062882131964651532800000003192678786198083255_">
					<use xlink:href="#SVGID_00000040546254393251052190000016476197305126413484_"  style="overflow:visible;"/>
				</clipPath>
				<g style="clip-path:url(#SVGID_00000062882131964651532800000003192678786198083255_);">
					<path class="st11" d="M223.2,136.4c-1.8,1.5-130.1,107.2-154.8,81.2c-8.6-9.1,6.4-36.7,21.4-52v17
						c-8.2,11.7-11.4,20.3-8.2,24.3c1.9,2.4,6.1,3.2,12.1,2.3C117.3,206,169.3,178.6,223.2,136.4L223.2,136.4z"/>
				</g>
			</g>
		</g>
	</g>
</g>
<path class="st1" d="M292.7,113.1l-2.9,3.3c-0.8,0.9-2.2,1-3.1,0.2c-0.9-0.8-1-2.2-0.2-3.2l2.9-3.3c0.8-0.9,2.2-1,3.1-0.2
	C293.4,110.8,293.5,112.2,292.7,113.1L292.7,113.1z"/>
<g>
	<defs>
		<rect id="SVGID_00000073700805261349110960000000703213935280109499_" x="199.7" y="54" width="114.1" height="110.7"/>
	</defs>
	<clipPath id="SVGID_00000150099160116003747610000004433250890814656696_">
		<use xlink:href="#SVGID_00000073700805261349110960000000703213935280109499_"  style="overflow:visible;"/>
	</clipPath>
	<g style="clip-path:url(#SVGID_00000150099160116003747610000004433250890814656696_);">
		<path class="st1" d="M200.1,127.3l3.6-3.2l22.8,3.8l28.3-30.7l-11.6-10.7l-40.4-12.8l5.2-5.1l66.8,8.3c0.7,0.1,1.4-0.2,1.9-0.6
			l18.8-18.2c1-1,2.2-1.7,3.5-2.2c3.4-1.2,10-3,13.1,0.2c3.4,3.5,0.2,10.5-1.5,13.7c-0.5,1-1.3,1.9-2.1,2.7l-19.1,17.2
			c-0.5,0.4-0.8,1.1-0.8,1.7l1.8,67.5l-5.1,4.6l-9.7-41.8l-9.5-12.1l-32.8,26.1l1.5,22.4l-3.2,3.2l-9.9-19.5
			c-0.6-1.2-1.5-2.1-2.6-2.8L200.1,127.3L200.1,127.3L200.1,127.3z"/>
	</g>
</g>
<path class="st6" d="M254.4,95.7l-11.7-10.7l-13.3-4.2l12.2,4.9l9.9,10.3l-5.1,8.2L254.4,95.7L254.4,95.7L254.4,95.7z"/>
<path class="st6" d="M265.9,108.2l9.9,12.3l2.9,14.2l-3.6-13.2l-9.7-10.7l-8.6,4.7L265.9,108.2L265.9,108.2L265.9,108.2z"/>
<path class="st1" d="M35.3,327H25.1c-0.5-0.6-0.8-1.5-1-2.5c-0.2-0.8-0.4-1.6-0.8-2.3s-0.9-1.4-1.8-1.9c-0.8-0.5-2-0.8-3.7-0.8h-7
	v7.5H0v-25.9h17.6c4.2,0,7.6,0.3,10.2,1c2.6,0.6,4.5,1.6,5.7,3s1.8,3.1,1.8,5.3c0,1.8-0.4,3.4-1.2,4.6c-0.8,1.2-2.1,2.2-3.9,2.9
	c1.7,0.7,2.8,1.6,3.3,2.6c0.5,1,0.8,2.1,1,3.3C34.6,324.7,34.9,325.8,35.3,327L35.3,327z M10.9,313.1l6.2,0c1.7,0,3.1-0.1,4.1-0.2
	c1-0.1,1.7-0.4,2.2-0.6c0.5-0.3,0.8-0.6,0.9-0.9c0.1-0.3,0.2-0.7,0.2-1s-0.1-0.7-0.2-1c-0.1-0.3-0.4-0.6-0.9-0.9
	c-0.5-0.3-1.2-0.5-2.2-0.6c-1-0.2-2.4-0.2-4.1-0.2h-6.2L10.9,313.1L10.9,313.1z"/>
<path class="st1" d="M69.7,327H38.5v-25.9h29.7v6.4H49.4v4.1h16v5h-16v4h20.3L69.7,327L69.7,327z"/>
<path class="st1" d="M87.7,327.5c-6.3,0-10.8-1.3-13.3-3.9c-2.2-2.2-3.2-5.4-3.2-9.5H82c0,1.8,0.3,3.2,0.9,4.3
	c0.9,1.5,2.5,2.3,4.8,2.3s3.9-0.8,4.8-2.3c0.6-1.1,0.9-2.5,0.9-4.3v-12.9h10.8v13.1c0,4.1-1.1,7.2-3.2,9.4
	C98.5,326.2,94,327.5,87.7,327.5L87.7,327.5z"/>
<path class="st1" d="M121.9,327.5c-3.5,0-6.3-0.4-8.5-1.1s-3.8-1.8-4.9-3.1c-1.1-1.3-1.9-2.8-2.2-4.6h11.5c0.9,1.2,2.2,1.9,4.1,1.9
	s3.2-0.6,4.1-1.9c0.1-0.1,0.1-0.2,0.1-0.3c0-0.3-0.4-0.6-1.3-0.7c-0.9-0.2-2.2-0.3-3.8-0.4c-2.2-0.1-4.4-0.3-6.8-0.7
	c-5.3-0.8-7.9-2.9-7.9-6.4c0-0.3,0-0.6,0.1-0.9c0.4-1.7,1.1-3.2,2.2-4.5c1.1-1.3,2.8-2.4,4.9-3.1s5-1.1,8.5-1.1s6.3,0.4,8.5,1.1
	s3.8,1.8,4.9,3.1c1.1,1.3,1.9,2.8,2.3,4.5H126c-0.8-1.2-2.2-1.8-4.1-1.8s-3.2,0.6-4.1,1.8c-0.1,0.1-0.1,0.2-0.1,0.3
	c0,0.3,0.4,0.5,1.2,0.6c0.8,0.1,2,0.3,3.6,0.4c1.6,0.1,3.3,0.3,5.2,0.5c1.8,0.2,3.5,0.6,5.1,1.1c1.6,0.5,2.8,1.3,3.7,2.4
	c0.7,0.8,1,1.8,1,3.1c0,0.4,0,0.7-0.1,1.1c-0.4,1.7-1.1,3.2-2.3,4.6c-1.1,1.3-2.7,2.4-4.9,3.1S125.4,327.5,121.9,327.5L121.9,327.5z
	"/>
<path class="st1" d="M172,327h-31.1v-25.9h29.7v6.4h-18.9v4.1h16v5h-16v4H172L172,327L172,327z"/>
<path class="st1" d="M199.9,327.5c-6.4,0-11.1-1.3-14.1-4c-2.7-2.3-4-5.5-4-9.5s1.3-7.2,4-9.5c3-2.6,7.7-3.9,14.1-3.9
	c3.6,0,6.7,0.4,9.1,1.2c2.4,0.8,4.3,1.9,5.7,3.3s2.3,3,2.8,4.9h-11.6c-1.2-1.7-3.2-2.5-6-2.5c-2.6,0-4.5,0.8-5.8,2.2
	c-1,1.2-1.5,2.7-1.5,4.3s0.5,3.1,1.5,4.3c1.2,1.5,3.2,2.3,5.8,2.3c2.1,0,3.7-0.2,4.8-0.5c1.1-0.4,1.8-0.9,2.3-1.5h-4.2V314h14.7V327
	H213l-0.9-2.5C209.2,326.5,205.2,327.5,199.9,327.5L199.9,327.5z"/>
<path class="st1" d="M236.8,327.5c-6.3,0-10.8-1.3-13.3-3.9c-2.2-2.2-3.2-5.4-3.2-9.5v-12.9h10.9V314c0,1.8,0.3,3.2,0.9,4.3
	c0.9,1.5,2.5,2.3,4.8,2.3s3.9-0.8,4.8-2.3c0.6-1.1,0.9-2.5,0.9-4.3v-12.9h10.9v13.1c0,4.1-1.1,7.2-3.2,9.4
	C247.6,326.2,243.1,327.5,236.8,327.5L236.8,327.5z"/>
<path class="st1" d="M267.6,327h-10.9v-25.9h10.9V327z"/>
<path class="st1" d="M289.6,327h-17.3v-25.9h17.3c7.1,0,12.2,1,15.3,3c2.5,1.6,3.9,3.8,4.3,6.5c0.1,1.2,0.2,2.3,0.2,3.4
	s-0.1,2.2-0.2,3.4c-0.1,1.2-0.5,2.4-1.2,3.5c-0.7,1.1-1.7,2.1-3.1,3c-1.4,0.9-3.3,1.6-5.8,2.2S293.5,327,289.6,327L289.6,327z
	 M288.6,320.6c5.5,0,8.6-1.4,9.4-4.2c0.2-0.8,0.3-1.6,0.3-2.4s-0.1-1.6-0.3-2.4c-0.2-0.8-0.6-1.5-1.3-2.1c-0.6-0.6-1.6-1.1-2.9-1.5
	c-1.3-0.4-3-0.6-5.2-0.6h-5.4v13.1L288.6,320.6L288.6,320.6z"/>
<path class="st1" d="M343.8,327h-31.1v-25.9h29.7v6.4h-18.9v4.1h16v5h-16v4h20.3L343.8,327L343.8,327z"/>
<path class="st1" d="M385.4,327h-12.9l-14.6-17.5V327H347v-25.9h12.9l14.6,17.4v-17.4h10.9L385.4,327L385.4,327z"/>
</svg>
