<svg width="1440" height="261" viewBox="0 0 1440 261" fill="none" xmlns="http://www.w3.org/2000/svg">
<mask id="path-1-inside-1_199_3" fill="white">
<path d="M1455.51 301.785C1213.63 194.872 996.228 175.423 866.621 176.552C743.884 177.62 704.67 199.232 591.496 180.763C434.87 155.197 391.851 61.6973 196.505 26.5212C147.374 17.6753 35.8097 1.42724 0.00528114 12.7853C-76.7265 37.1261 -47.2431 139.682 0.00534873 260.785"/>
</mask>
<path d="M1455.51 301.785C1213.63 194.872 996.228 175.423 866.621 176.552C743.884 177.62 704.67 199.232 591.496 180.763C434.87 155.197 391.851 61.6973 196.505 26.5212C147.374 17.6753 35.8097 1.42724 0.00528114 12.7853C-76.7265 37.1261 -47.2431 139.682 0.00534873 260.785" fill="url(#paint0_linear_199_3)"/>
<path d="M866.621 176.552L866.708 186.551L866.709 186.551L866.621 176.552ZM591.496 180.763L589.885 190.632L589.885 190.632L591.496 180.763ZM196.505 26.5212L198.278 16.6795L198.277 16.6794L196.505 26.5212ZM0.00528114 12.7853L3.02899 22.3172L3.02903 22.3172L0.00528114 12.7853ZM1459.55 292.639C1216.07 185.015 997.183 165.414 866.534 166.552L866.709 186.551C995.272 185.431 1211.2 204.729 1451.46 310.932L1459.55 292.639ZM866.534 166.552C804.677 167.09 763.433 172.831 724.654 176.017C685.972 179.195 648.714 179.968 593.107 170.893L589.885 190.632C647.452 200.027 686.388 199.228 726.291 195.95C766.097 192.68 805.828 187.081 866.708 186.551L866.534 166.552ZM593.107 170.893C516.78 158.435 468.307 129.573 413.444 98.5416C358.35 67.3805 297.601 34.5647 198.278 16.6795L194.733 36.3629C290.756 53.6538 349.189 85.1759 403.598 115.95C458.236 146.854 509.586 177.525 589.885 190.632L593.107 170.893ZM198.277 16.6794C173.528 12.2235 133.076 5.90505 94.2263 2.1238C74.8086 0.233869 55.6337 -1.03809 38.9438 -1.10403C22.5468 -1.16881 7.52084 -0.0899326 -3.01846 3.25339L3.02903 22.3172C10.392 19.9815 22.7381 18.8321 38.8648 18.8958C54.6984 18.9584 73.1986 20.1717 92.2888 22.0297C130.455 25.7445 170.351 31.973 194.733 36.363L198.277 16.6794ZM-3.01843 3.25338C-24.566 10.0887 -39.401 22.7787 -47.9967 40.3871C-56.3926 57.5865 -58.3713 78.5185 -56.4521 101.337C-52.6279 146.806 -32.8812 204.006 -9.31072 264.42L9.32142 257.151C-14.3565 196.461 -32.9757 141.831 -36.5224 99.6613C-38.2887 78.6607 -36.204 61.8209 -30.0238 49.1607C-24.0433 36.9095 -13.7893 27.6523 3.02899 22.3172L-3.01843 3.25338Z" fill="#FBA708" mask="url(#path-1-inside-1_199_3)"/>
<mask id="path-3-outside-2_199_3" maskUnits="userSpaceOnUse" x="-72.2441" y="39.4757" width="1446.26" height="383.8" fill="black">
<rect fill="white" x="-72.2441" y="39.4757" width="1446.26" height="383.8"/>
<path d="M1351.54 295.247C1351.54 263.747 971.483 212.911 846.5 214C728.141 215.03 696.285 244.125 587.148 226.314C436.109 201.66 394.625 111.496 206.248 77.575C158.869 69.0447 51.2849 53.3763 16.7577 64.3291C-57.2367 87.8016 -69.0629 177.217 -23.5 294"/>
</mask>
<path d="M846.5 214L846.587 224L846.587 224L846.5 214ZM587.148 226.314L585.537 236.184L585.537 236.184L587.148 226.314ZM206.248 77.575L208.02 67.7333L208.02 67.7333L206.248 77.575ZM16.7577 64.3291L19.7814 73.861L19.7815 73.861L16.7577 64.3291ZM1361.54 295.247C1361.54 288.209 1356.48 283.553 1353.23 281.12C1349.44 278.287 1344.41 275.752 1338.79 273.427C1327.44 268.729 1311.52 264.021 1292.58 259.395C1254.56 250.111 1202.81 240.785 1147.37 232.512C1036.61 215.984 909.717 203.449 846.413 204L846.587 224C908.266 223.462 1033.89 235.8 1144.41 252.293C1199.61 260.53 1250.68 269.751 1287.83 278.824C1306.47 283.377 1321.22 287.8 1331.14 291.907C1336.16 293.984 1339.42 295.77 1341.26 297.142C1343.63 298.914 1341.54 298.347 1341.54 295.247L1361.54 295.247ZM846.413 204C786.39 204.523 747.977 212.2 711.958 217.322C676.242 222.401 642.055 225.142 588.758 216.445L585.537 236.184C641.377 245.296 677.687 242.396 714.774 237.123C751.557 231.892 788.251 224.507 846.587 224L846.413 204ZM588.759 216.445C515.226 204.442 468.533 176.642 415.623 146.716C362.483 116.659 303.859 84.9911 208.02 67.7333L204.476 87.4168C297.014 104.08 353.321 134.455 405.777 164.124C458.462 193.923 508.031 223.532 585.537 236.184L588.759 216.445ZM208.02 67.7333C184.147 63.4351 145.128 57.3405 107.652 53.6929C88.9212 51.8699 70.4184 50.6422 54.3085 50.5786C38.4917 50.5161 23.9539 51.5552 13.734 54.7972L19.7815 73.861C26.8251 71.6266 38.683 70.517 54.2295 70.5784C69.483 70.6387 87.3112 71.8077 105.715 73.5989C142.507 77.1799 180.97 83.1846 204.476 87.4168L208.02 67.7333ZM13.734 54.7972C-27.4068 67.8479 -51.0561 99.5647 -58.0745 142.562C-64.9888 184.921 -55.9259 238.401 -32.816 297.635L-14.1839 290.365C-36.637 232.816 -44.4425 183.196 -38.3358 145.784C-32.3332 109.01 -13.0722 84.2829 19.7814 73.861L13.734 54.7972Z" fill="#80D4FF" mask="url(#path-3-outside-2_199_3)"/>
<g clip-path="url(#clip0_199_3)">
<path d="M947.516 174.301L947.5 174.283L947.482 174.267C945.405 172.262 942.817 170.882 940.042 170.679C937.05 170.46 933.611 171.318 931.166 173.065C928.328 175.01 924.861 175.958 921.626 175.785L921.883 172.271C924.472 172.155 927.239 171.272 929.334 169.493C932.585 167.281 936.298 166.368 939.854 166.928L939.915 166.937L939.977 166.942C943.678 167.212 947.239 168.713 949.772 171.314C954.052 175.845 960.941 176.353 965.839 172.502C972.02 168.041 980.548 168.703 985.64 173.933C989.893 178.435 996.806 179.011 1001.41 175.065C1004.29 172.872 1008.02 171.911 1011.71 172.181C1015.05 172.424 1018.25 173.879 1020.45 176.422L1020.5 176.474L1020.54 176.521C1020.73 176.701 1020.92 176.889 1021.11 177.078C1021.74 177.713 1022.4 178.37 1023.14 178.853C1023.9 179.347 1024.75 179.677 1025.82 179.876L1025.56 183.446C1022.87 182.742 1020.44 181.418 1018.24 179.456C1016.42 177.39 1013.8 176.065 1010.77 175.844C1008.09 175.648 1004.95 176.548 1002.82 178.366C999.971 180.534 996.613 181.213 993.211 180.965C989.523 180.695 985.938 179.199 983.356 176.89C979.101 172.423 972.214 171.861 967.62 175.796C964.75 177.981 961.023 178.951 956.983 178.656C953.312 178.388 950.071 176.928 947.516 174.301Z" fill="#FBA708" stroke="#FBA708" stroke-width="3"/>
<path d="M930.335 167.808C932.469 166.279 934.554 165.42 936.949 164.921L937.488 157.546C937.635 155.535 939.098 153.957 941.109 154.104L1024.91 160.224L1012.09 169.734L1012.76 169.783C1015.44 169.979 1018.07 170.845 1020.01 171.998L1028.93 165.235L1029.65 164.613C1032.22 161.768 1031.84 157.696 1028.99 155.129C1028.37 154.41 1026.72 153.952 1025.38 153.854L941.574 147.734C935.876 147.318 931.2 151.358 930.783 157.057L930.335 167.808Z" fill="#FBA708"/>
<path d="M977.817 141.954L957.704 140.485C954.017 140.216 951.22 136.978 951.49 133.291C951.588 131.95 952.021 130.634 953.124 129.366L968.288 110.927C970.52 108.057 974.926 107.705 977.797 109.937C979.375 111.4 980.233 113.485 980.087 115.496L978.153 141.978L977.817 141.954Z" fill="#FBA708"/>
<path d="M1008.82 146.639L981 144.607L984.06 102.704C984.329 99.017 987.567 96.2203 991.254 96.4896C993.6 96.661 995.514 98.1487 996.708 100.258L1015.28 136.663C1017.05 140.162 1015.41 144.087 1012.27 145.542C1011.22 146.139 1009.85 146.377 1008.82 146.639Z" fill="#FBA708"/>
</g>
<defs>
<linearGradient id="paint0_linear_199_3" x1="-51.4536" y1="127.541" x2="1458.9" y2="264.275" gradientUnits="userSpaceOnUse">
<stop stop-color="#38B6FF"/>
<stop offset="1" stop-color="#0088CC"/>
</linearGradient>
<clipPath id="clip0_199_3">
<rect width="121" height="121" fill="white" transform="translate(924.818 75.2853) rotate(4.1767)"/>
</clipPath>
</defs>
</svg>
