<svg width="45" height="45" viewBox="0 0 45 45" fill="none" xmlns="http://www.w3.org/2000/svg">
<g clip-path="url(#clip0_18_4)">
<path d="M22.3595 26.7056L18.8797 45H25.7153L22.3595 26.7056Z" fill="#FBA708"/>
<path d="M24.2179 26.283L29.4541 44.1536L35.5378 41.035L24.2179 26.283Z" fill="#FBA708"/>
<path d="M25.6801 25.0591L38.4801 38.5762L42.4749 33.0244L25.6801 25.0591Z" fill="#FBA708"/>
<path d="M26.4233 23.3024L43.9735 29.4937L45 22.7302L26.4233 23.3024Z" fill="#FBA708"/>
<path d="M26.2854 21.4002L44.7254 18.9037L42.5589 12.415L26.2854 21.4002Z" fill="#FBA708"/>
<path d="M25.296 19.7693L40.5719 9.13472L35.6879 4.34821L25.296 19.7693Z" fill="#FBA708"/>
<path d="M23.6722 18.7698L32.4247 2.33529L25.8978 0.303223L23.6722 18.7698Z" fill="#FBA708"/>
<path d="M21.7721 18.6208L22.0762 0L15.3414 1.16938L21.7721 18.6208Z" fill="#FBA708"/>
<path d="M20.0128 19.3548L11.8025 2.64255L6.34033 6.75596L20.0128 19.3548Z" fill="#FBA708"/>
<path d="M18.7818 20.8112L3.86159 9.68204L0.873596 15.8351L18.7818 20.8112Z" fill="#FBA708"/>
<path d="M18.3491 22.6687L0 19.5705L0.143085 26.4099L18.3491 22.6687Z" fill="#FBA708"/>
<path d="M18.8096 24.5199L1.06708 30.1332L4.30996 36.1557L18.8096 24.5199Z" fill="#FBA708"/>
<path d="M20.0632 25.9571L6.82812 39.0476L12.4577 42.9285L20.0632 25.9571Z" fill="#FBA708"/>
<path d="M22.2686 29.1023C25.7879 29.1023 28.6408 26.2471 28.6408 22.725C28.6408 19.2028 25.7879 16.3476 22.2686 16.3476C18.7493 16.3476 15.8964 19.2028 15.8964 22.725C15.8964 26.2471 18.7493 29.1023 22.2686 29.1023Z" fill="#FBA708"/>
</g>
<defs>
<clipPath id="clip0_18_4">
<rect width="45" height="45" fill="white"/>
</clipPath>
</defs>
</svg>
