<svg width="108" height="97" viewBox="0 0 108 97" fill="none" xmlns="http://www.w3.org/2000/svg">
<path d="M11.9865 19.5024L15.6648 20.8296L22.0018 38.6567L55.1312 46.7769L58.166 34.2301L51.3906 0.229779L57.0819 1.99325L77.5766 53.102C77.7868 53.6236 78.2341 54.0191 78.7428 54.1909L99.2011 60.4792C100.295 60.8196 101.28 61.3704 102.138 62.1039C104.375 64.0377 108.251 68.05 107.155 71.6006C105.966 75.3877 99.6857 75.9162 96.761 75.9446C95.8293 75.9676 94.9067 75.7956 94.0209 75.4963L74.1893 68.6329C73.6807 68.4612 73.1069 68.5152 72.6443 68.7707L25.0362 96.7664L19.7093 94.9135L45.7793 71.454L50.718 59.8953L19.0513 46.7027L3.61811 56.6244L0.042459 55.6153L10.0826 40.786C10.6808 39.886 11.0244 38.8687 11.0696 37.7873L11.9902 19.5003L11.9865 19.5024Z" fill="#222222"/>
</svg>
