<svg width="90" height="161" viewBox="0 0 90 161" fill="none" xmlns="http://www.w3.org/2000/svg">
<g clip-path="url(#clip0_47_355)">
<path d="M132.042 50.3015L143.714 91.3749C139.656 116.708 120.032 137.986 93.3183 143.319C58.6741 150.235 25.1258 127.852 18.2101 93.2074C11.2944 58.5632 33.6776 25.0149 68.3217 18.0992C80.8437 15.5995 93.2808 17.0231 104.34 21.326L132.042 50.3015Z" fill="#0088CC"/>
<path d="M104.34 21.326C105.382 23.288 106.467 25.4588 104.171 24.8319C100.248 23.6618 95.2405 22.4913 96.993 23.6606C98.7455 24.8299 99.7049 26.3745 97.3675 26.6241C95.0302 26.8737 90.7312 27.0808 89.3945 30.1688C88.0578 33.2569 85.4284 33.1307 85.0106 34.2992C84.5928 35.4677 84.4242 40.0587 82.2543 38.9727C80.126 38.0955 75.4112 34.0453 78.7917 34.6725C82.1721 35.2998 85.4284 33.1307 81.84 30.3748C78.2517 27.6188 75.5798 29.4543 73.9527 27.8259C72.3255 26.1976 67.6933 24.7351 65.4793 29.9514C63.4741 35.1261 61.9691 41.72 60.5495 43.3054C59.1299 44.8909 56.0402 47.8949 57.0413 49.6482C57.8336 51.4432 58.9172 55.7842 60.5456 54.157C62.1739 52.5299 63.0924 51.6955 64.1772 52.7811C65.0532 53.9083 65.3445 56.4543 66.8054 56.1627C66.8054 56.1627 69.3105 53.4924 69.1443 51.5725C68.978 49.6525 66.4741 49.0673 67.6021 46.0209C68.7301 42.9745 71.4451 37.0071 71.1519 39.8869C70.8171 42.5579 69.6887 46.6895 71.4828 48.0674C73.0683 49.4871 79.9562 45.9419 76.9503 48.2781C73.9444 50.6143 72.5248 52.1998 72.3153 54.4118C72.1058 56.6237 71.813 58.4183 69.9767 57.9168C68.1405 57.4153 66.1368 58.2493 65.302 58.4159C64.4672 58.5826 63.2999 54.9093 62.0057 56.0357C60.9201 57.1205 63.1313 59.5003 61.7121 60.0006C60.2928 60.501 60.4174 62.2122 58.9978 63.7977C57.5781 65.3832 55.7824 68.3459 54.3631 68.8462C52.9439 69.3465 57.0755 70.4749 56.7826 72.2695C56.5315 74.2728 53.1506 74.7307 51.9401 75.1893C50.7296 75.648 52.273 77.9441 51.9385 79.53C51.604 81.1158 53.1479 82.3268 55.2349 81.9102C57.3219 81.4936 59.3255 80.6596 59.1593 78.7396C58.993 76.8196 60.2464 73.3142 61.8323 73.6487C63.2095 74.0248 65.965 71.5216 66.7994 72.4401C67.6338 73.3586 72.3074 76.115 71.9733 76.6157C71.6392 77.1164 69.5518 78.6182 70.4699 78.8689C70.4699 78.8689 71.3044 79.7874 71.6801 79.4954C72.0558 79.2034 72.5577 76.282 73.1005 75.7396C73.6433 75.1972 73.3517 73.7363 72.3919 73.2769C71.2234 72.8591 67.1756 71.0629 67.7604 69.6441C68.3452 68.2252 70.7651 70.5634 71.7666 71.2315C72.768 71.8997 74.2285 72.6932 74.6035 74.5715C74.9784 76.4498 76.2306 76.1999 76.3973 77.0347C76.8143 78.0365 77.2733 78.1619 78.3168 77.9536C79.3187 77.5366 79.2778 75.1575 78.7354 74.6148C77.9843 74.1137 77.7344 72.8615 78.9866 72.6115C80.2388 72.3615 81.4913 71.0264 81.3664 70.4003C81.2414 69.7742 81.7437 65.7676 82.5785 65.601C83.4133 65.4343 84.331 66.7703 84.7064 67.5634C85.2904 68.3149 87.0858 66.4374 86.5017 65.6859C85.9177 64.9344 86.5021 64.6007 87.1282 64.4757C87.7543 64.3508 87.6702 66.1037 88.1709 66.4378C88.8804 66.7302 92.1771 68.0252 91.3419 69.277C90.5067 70.5288 88.9208 70.1944 87.7107 69.5679C86.5005 68.9414 83.8708 69.9004 83.2026 70.9018C82.7432 71.8616 82.2004 72.404 80.9482 72.6539C79.696 72.9039 80.3629 75.1579 81.5731 75.7844C82.8249 76.6196 84.1191 75.4932 85.2876 75.911C86.4561 76.3288 87.8341 74.5346 88.2511 75.5364C88.6681 76.5383 88.8756 79.7521 87.8738 80.1691C86.8719 80.5861 83.6577 81.8788 81.1537 81.2936C78.441 80.75 76.062 80.7909 76.0616 81.876C76.1029 83.1699 76.2695 84.0047 74.3916 83.2945C72.5137 82.5843 70.9278 82.2498 69.8843 82.4581C68.8408 82.6664 68.4659 80.7881 68.383 79.2855C68.3 77.783 65.6702 78.742 64.084 79.4927C62.4977 80.2433 59.3668 81.9534 57.2798 82.37C55.1928 82.7866 54.4413 83.3707 54.1906 84.2888C53.9398 85.2069 52.0615 85.5819 52.3948 87.2515C52.7281 88.9211 53.0201 89.2968 51.5172 90.4649C49.7638 91.4659 50.013 94.8885 49.3449 95.8899C48.6767 96.8913 50.7629 98.6451 50.1781 100.064C49.5516 101.274 49.3 104.362 50.8859 104.697C52.4718 105.031 54.516 107.662 55.3504 108.58C56.1848 109.499 58.6888 110.084 60.9012 109.208C63.1135 108.333 67.0376 106.247 69.5416 106.832C72.0456 107.418 74.2996 106.751 73.6727 109.046C72.8371 111.383 75.257 113.721 77.0095 114.89C78.7621 116.06 79.0946 119.899 78.4681 121.11C77.8832 122.528 78.5085 124.574 79.5516 125.451C80.5947 126.327 81.5121 128.749 81.6787 129.583C81.887 130.627 83.9316 132.172 84.5152 134.009C85.1405 136.054 84.1379 138.641 86.0162 138.266C87.8945 137.891 92.7363 137.142 92.987 136.224C93.2378 135.306 96.3278 131.216 97.0797 129.547C97.8315 127.878 99.4186 124.957 98.5009 123.621C97.0404 122.828 97.6669 121.617 99.5872 120.366C101.508 119.115 100.341 113.271 99.0059 112.018C97.6708 110.766 98.8409 106.843 100.928 105.341C103.016 103.839 106.525 93.1561 105.022 94.3242C103.311 95.5339 99.8879 96.8682 98.4691 96.2834C97.0502 95.6986 87.2461 84.6347 88.1229 83.5916C88.9998 82.5485 97.3014 93.6953 98.6365 94.9479C100.013 96.4092 108.614 88.3988 109.575 86.688C110.326 85.0188 108.365 83.8911 107.739 84.0161C107.113 84.1411 104.526 83.1385 104.066 84.0983C103.607 85.0581 98.058 79.0042 99.6439 79.3386C101.23 79.6731 104.777 81.1352 108.032 82.2216C111.287 83.3079 114.085 79.9282 116.588 82.6838C119.3 85.3977 120.135 83.0607 120.218 84.5633C120.301 86.0658 124.222 91.5765 125.641 93.2465C126.851 94.9582 128.187 91.8701 127.979 89.7415C127.73 87.4041 131.404 82.9813 132.824 81.3958C134.035 79.852 137.332 81.1471 138.249 83.5681C139.166 85.9892 140.67 82.6508 141.045 84.5291C141.462 86.6161 141.586 89.4125 143.547 91.6253C145.01 83.7375 145.013 76.1414 143.43 68.2108C139.014 46.0886 123.661 28.9709 104.34 21.326ZM39.3474 42.5465C38.1785 43.2138 37.218 44.9247 35.3817 44.4232C33.5455 43.9217 30.2476 45.8821 32.9182 47.3021C35.4218 48.9725 34.837 50.3914 36.9656 50.1835C39.0943 49.9755 39.7632 46.8038 41.2658 46.7209C42.7684 46.6379 40.725 41.8374 39.3474 42.5465Z" fill="#FBA708"/>
<path d="M106.351 114.024C104.932 114.525 105.932 117.363 104.346 118.114C102.968 118.823 104.471 119.825 103.844 121.035C103.426 122.204 103.509 124.792 104.802 125.835C106.137 127.088 106.555 127.005 107.349 124.459C108.184 122.122 109.44 113.191 106.351 114.024ZM50.9041 54.7796C50.278 54.9046 49.7352 55.447 49.1091 55.5719C48.5247 55.9056 48.2739 56.8237 48.4405 57.6585C48.6488 58.702 50.3601 58.5775 49.859 59.3285C49.3579 60.0796 46.1437 61.3723 46.7694 62.3325C47.3951 63.2926 48.1878 64.0025 47.77 65.1709C47.3522 66.3394 48.6461 66.2982 49.815 65.6308C50.9838 64.9634 51.527 63.3359 51.1517 62.5427C50.7347 61.5409 52.78 60.9156 52.3205 61.8754C51.8611 62.8352 51.2342 65.1305 51.9853 65.6316C52.7364 66.1327 50.649 67.6345 51.5671 67.8852C52.4852 68.136 54.3643 65.5907 55.6998 65.7581C57.0353 65.9256 57.2861 65.0075 57.2865 63.9223C57.2452 62.6284 55.0753 61.5425 54.1576 60.2066C53.1982 58.662 52.7824 54.4046 50.9041 54.7796Z" fill="#FBA708"/>
</g>
<defs>
<clipPath id="clip0_47_355">
<rect width="136.203" height="136.203" fill="white" transform="translate(0.70459 27.2567) rotate(-11.2891)"/>
</clipPath>
</defs>
</svg>
