<svg width="459" height="651" viewBox="0 0 459 651" fill="none" xmlns="http://www.w3.org/2000/svg">
<g clip-path="url(#clip0_47_373)">
<path d="M265.863 166.547L351.921 287.941C368.081 375.856 328.472 468.49 247.062 516.959C141.483 579.818 5.41634 545.165 -57.5653 439.379C-120.547 333.593 -86.1613 197.458 19.4174 134.6C57.5784 111.88 100.025 102.146 141.3 103.467L265.863 166.547Z" fill="#0088CC"/>
<path d="M141.3 103.467C147.002 108.703 153.083 114.577 144.826 115.178C130.599 115.88 112.813 117.837 119.921 119.648C127.029 121.458 131.972 125.42 124.596 128.948C117.221 132.476 103.362 138.138 102.57 149.83C101.779 161.522 93.0082 164.155 92.9972 168.477C92.9862 172.799 97.7736 188.075 89.3936 187.022C81.393 186.607 61.2184 178.765 73.0351 176.909C84.8518 175.053 93.0082 164.155 78.0334 159.26C63.0587 154.365 56.4309 163.49 49.2002 160.026C41.9694 156.563 25.0756 157.126 23.8823 176.826C23.325 196.147 26.0596 219.55 23.248 226.403C20.4363 233.256 13.7975 246.703 19.1202 251.303C23.8069 256.281 32.4105 269.285 35.8582 262.053C39.3059 254.822 41.3477 251.016 46.1682 253.325C50.3527 256.013 54.2696 264.039 58.7217 261.388C58.7217 261.388 63.8318 249.714 61.0532 243.6C58.2746 237.486 49.3813 238.465 49.5372 227.151C49.693 215.838 51.6561 193.09 54.0444 202.889C56.0532 212.051 57.1584 226.93 64.6457 229.377C71.4971 232.203 89.9636 212.577 82.8226 223.734C75.6816 234.891 72.8699 241.744 74.7559 249.252C76.6419 256.761 77.7692 262.995 71.1634 263.475C64.5576 263.956 58.9563 269.017 56.4122 270.532C53.8682 272.046 45.7668 261.333 42.8323 266.532C40.5338 271.353 50.5543 276.609 46.4816 279.897C42.4089 283.184 44.8081 288.661 41.9964 295.514C39.1847 302.367 36.7414 314.18 32.6687 317.467C28.596 320.755 43.459 319.675 44.5862 325.909C46.0928 332.78 35.5371 338.202 32.1005 341.111C28.6638 344.02 36.3967 349.774 37.1445 355.371C37.8923 360.968 44.3643 363.157 50.7245 359.37C57.0846 355.583 62.686 350.522 59.9073 344.408C57.1287 338.294 57.1617 325.327 62.752 324.588C67.7063 324.228 73.8319 312.813 77.637 314.863C81.4421 316.913 99.9763 320.552 99.4631 322.584C98.9499 324.616 93.8508 331.968 97.1536 331.728C97.1536 331.728 100.959 333.778 101.851 332.383C102.744 330.989 100.992 320.811 102.141 318.4C103.29 315.99 100.634 311.529 96.9521 311.132C92.6338 311.113 77.2686 309.903 77.5362 304.565C77.8039 299.227 88.4603 304.103 92.522 305.138C96.5837 306.172 102.297 307.087 105.711 312.822C109.126 318.557 112.942 316.285 114.46 318.834C116.993 321.642 118.644 321.522 121.824 319.629C124.625 317.098 121.724 309.331 119.313 308.176C116.267 307.401 113.991 303.577 117.807 301.305C121.623 299.033 124.178 293.196 123.04 291.284C121.902 289.373 118.888 275.63 121.432 274.115C123.976 272.6 128.54 275.925 130.694 278.096C133.484 279.887 137.188 271.64 134.398 269.848C131.609 268.057 133.137 266.283 135.045 265.147C136.953 264.011 138.717 269.867 140.747 270.384C143.414 270.522 155.733 270.957 154.45 276.036C153.167 281.116 147.577 281.855 142.879 281.199C138.181 280.543 130.672 286.74 129.646 290.804C129.255 294.489 128.106 296.9 124.29 299.172C120.474 301.444 125.283 308.075 129.981 308.731C135.058 310.024 137.992 304.824 142.311 304.842C146.629 304.861 149.061 297.371 151.594 300.178C154.127 302.986 158.547 313.302 155.746 315.833C152.945 318.364 143.907 326.334 135.014 327.313C125.485 328.671 117.73 331.561 118.991 335.126C120.631 339.329 122.149 341.878 115.164 341.721C108.178 341.564 102.588 342.302 99.408 344.196C96.228 346.089 92.8133 340.354 90.7935 335.514C88.7736 330.675 81.2642 336.872 76.9349 341.176C72.6056 345.479 64.3264 354.724 57.9662 358.511C51.6061 362.298 49.8208 365.087 50.0664 368.393C50.312 371.7 44.5879 375.108 47.6231 380.206C50.6584 385.304 52.0532 386.2 48.4827 391.778C43.8968 397.098 48.6953 408.051 47.6688 412.115C46.6424 416.179 55.5246 419.522 55.257 424.86C54.6099 429.561 57.3776 439.998 62.9679 439.259C68.5583 438.52 78.3221 444.791 82.1272 446.841C85.9323 448.892 94.8255 447.913 101.063 442.473C107.3 437.033 117.744 425.636 126.637 424.657C135.53 423.678 142.147 418.876 142.761 427.142C142.739 435.786 153.396 440.663 160.504 442.473C167.612 444.283 173.169 456.511 172.522 461.212C172.254 466.551 176.684 472.545 181.125 474.216C185.567 475.888 191.391 482.778 192.909 485.327C194.806 488.513 203.309 491.219 207.36 496.576C211.79 502.57 211.511 512.231 217.235 508.823C222.959 505.415 237.967 497.343 237.722 494.036C237.476 490.73 242.854 473.718 243.378 467.364C243.902 461.009 245.709 449.576 241.146 446.251C235.432 445.336 236.079 440.635 240.922 434.3C245.764 427.964 235.141 410.121 229.305 407.553C223.469 404.985 222.743 390.744 227.843 383.392C232.942 376.041 232.025 336.881 228.455 342.46C224.248 348.417 214.574 356.766 209.241 356.489C203.907 356.212 158.882 331.229 160.544 326.787C162.207 322.344 202.4 349.34 208.236 351.908C214.452 355.113 233.342 318.835 234.502 312.102C235.026 305.748 227.282 304.316 225.374 305.452C223.466 306.588 213.814 306.293 213.423 309.978C213.033 313.663 187.792 300.206 193.383 299.467C198.973 298.728 212.307 299.421 224.247 299.218C236.186 299.015 241.43 284.672 252.845 290.823C264.897 296.595 264.919 287.95 266.939 292.79C268.958 297.63 288.229 311.188 294.824 315.03C300.783 319.25 301.575 307.558 298.417 300.807C294.879 293.418 301.786 274.633 304.597 267.78C306.773 261.305 319.092 261.74 324.917 268.629C330.742 275.519 331.79 262.811 335.205 268.546C338.999 274.919 342.659 283.961 351.664 288.957C347.289 261.352 338.462 236.397 324.045 212.181C283.827 144.631 213.562 106.191 141.3 103.467ZM-47.172 248.476C-50.2293 252.023 -51.3895 258.756 -57.9953 259.236C-64.601 259.716 -73.1369 269.977 -62.726 271.547C-52.5718 274.133 -52.8394 279.472 -46.0998 276.322C-39.3603 273.173 -40.8559 261.979 -36.0243 259.966C-31.1928 257.952 -43.4787 244.551 -47.172 248.476Z" fill="#FBA708"/>
<path d="M255.728 405.632C251.656 408.92 258.239 417.084 253.91 421.388C250.217 425.313 256.309 426.865 255.662 431.566C255.651 435.888 258.932 444.293 264.389 446.223C270.224 448.791 271.496 448.033 271.139 438.751C271.161 430.107 264.889 399.315 255.728 405.632ZM4.96102 275.269C3.05297 276.405 1.90374 278.816 -0.00430839 279.952C-1.53295 281.725 -1.28735 285.032 0.230274 287.581C2.12731 290.767 7.59485 288.375 6.82502 291.423C6.05519 294.47 -2.98285 302.441 0.186221 304.87C3.35529 307.299 6.78097 308.712 6.76996 313.034C6.75895 317.357 10.9545 315.722 14.0117 312.175C17.069 308.629 16.9572 302.653 14.8036 300.483C12.2705 297.675 18.2513 293.251 17.8609 296.936C17.4705 300.621 18.0844 308.887 21.1307 309.663C24.177 310.439 19.0778 317.791 22.3807 317.551C25.6836 317.31 28.8857 306.772 33.4606 305.775C38.0355 304.778 37.7899 301.471 36.5289 297.906C34.8885 293.704 26.5085 292.651 21.9446 289.326C17.0013 285.364 10.6852 271.861 4.96102 275.269Z" fill="#FBA708"/>
<path d="M150.986 57.5024L154.665 58.8296L161.002 76.6567L194.131 84.7769L197.166 72.2301L190.391 38.2298L196.082 39.9932L216.577 91.102C216.787 91.6236 217.234 92.0191 217.743 92.1909L238.201 98.4792C239.295 98.8196 240.28 99.3704 241.138 100.104C243.375 102.038 247.251 106.05 246.155 109.601C244.966 113.388 238.686 113.916 235.761 113.945C234.829 113.968 233.907 113.796 233.021 113.496L213.189 106.633C212.681 106.461 212.107 106.515 211.644 106.771L164.036 134.766L158.709 132.914L184.779 109.454L189.718 97.8953L158.051 84.7027L142.618 94.6244L139.042 93.6153L149.083 78.786C149.681 77.886 150.024 76.8687 150.07 75.7873L150.99 57.5003L150.986 57.5024Z" fill="#222222"/>
</g>
<defs>
<clipPath id="clip0_47_373">
<rect width="473.731" height="474.661" fill="white" transform="translate(-191.696 243.027) rotate(-30.7682)"/>
</clipPath>
</defs>
</svg>
